<svg width="127" height="36" viewBox="0 0 127 36" fill="none" xmlns="http://www.w3.org/2000/svg"> <path d="M2.18999 30.5264C3.57652 30.9059 4.90649 31.2967 6.25194 31.6305C7.49335 31.955 8.78126 32.0901 10.0674 32.0309C10.779 31.9915 11.4808 31.8547 12.1511 31.6248C12.7378 31.41 13.2575 31.0576 13.6617 30.6005C14.0658 30.1434 14.3412 29.5966 14.4622 29.0112C14.9527 27.2069 14.8325 25.3607 14.842 23.4892C14.4863 23.9814 14.0996 24.4529 13.6841 24.901C12.9074 25.641 11.9477 26.1846 10.8926 26.4823C9.29468 26.952 7.5872 26.97 5.97869 26.5343C2.83354 25.7171 1.20173 23.5914 0.415892 20.744C0.0303851 19.1718 -0.0881855 17.5513 0.0646479 15.9437C0.139244 14.3308 0.577324 12.7517 1.34938 11.3129C2.42342 9.29343 4.27943 7.74649 6.52877 6.99599C7.93282 6.49809 9.42516 6.2626 10.9235 6.30249C12.2928 6.34823 13.662 6.37647 15.0283 6.48716C16.6393 6.61761 18.2431 6.83617 19.8505 6.99542C20.2536 7.03552 20.2435 7.26085 20.2435 7.53814C20.2399 12.9416 20.2389 18.3442 20.2405 23.7462C20.2405 25.1812 20.2941 26.6184 20.2232 28.05C20.184 29.1 20.0402 30.1442 19.794 31.1685C19.5518 32.2352 18.9915 33.2134 18.1798 33.9865C17.3682 34.7597 16.3393 35.2953 15.2159 35.5294C14.2305 35.7774 13.2201 35.925 12.2017 35.9699C10.9363 36.0294 9.66801 36.0007 8.40704 35.8841C7.01754 35.7525 5.6441 35.4786 4.26531 35.2572C3.87716 35.1945 3.49138 35.1093 3.11097 35.015C2.98485 34.9996 2.86858 34.9422 2.78297 34.853C2.69735 34.7639 2.64797 34.6487 2.64363 34.5281C2.51385 33.3111 2.34596 32.0998 2.19475 30.8822C2.18563 30.7638 2.18404 30.645 2.18999 30.5264ZM14.8438 14.0439C14.8438 13.1076 14.8092 12.1696 14.8581 11.2349C14.8831 10.7639 14.6717 10.6137 14.2479 10.5143C13.1044 10.2316 11.9121 10.1739 10.7443 10.3449C9.48353 10.4895 8.30274 11.007 7.36938 11.8239C6.16334 12.9683 5.47813 14.5154 5.46074 16.1335C5.43017 17.0602 5.48996 17.9877 5.63934 18.9041C5.70196 19.5332 5.90477 20.1426 6.23432 20.6918C6.56387 21.241 7.01265 21.7175 7.55095 22.0898C9.57866 23.4169 11.9707 22.99 13.4674 21.0235C14.3783 19.7563 14.8563 18.2539 14.8366 16.7202C14.8706 15.8296 14.8462 14.9368 14.8462 14.0439H14.8438Z" fill="white"></path> <path d="M97.1482 16.6807C97.1043 14.6776 97.603 12.6974 98.5966 10.9294C99.1921 9.87622 100.012 8.95214 101.005 8.21594C101.997 7.47974 103.14 6.94755 104.361 6.6532C105.867 6.27713 107.433 6.16705 108.98 6.32848C110.249 6.39243 111.49 6.69842 112.631 7.22814C113.772 7.75785 114.788 8.50041 115.62 9.41139C116.836 10.7467 117.614 12.3901 117.858 14.1394C118.062 15.4476 118.122 16.7725 118.037 18.0926C117.976 19.3865 117.641 20.6556 117.05 21.8235C116.46 22.9913 115.627 24.0339 114.601 24.8886C113.333 25.939 111.771 26.6162 110.104 26.8375C108.887 27.0146 107.654 27.0714 106.425 27.007C105.14 26.9614 103.879 26.6655 102.72 26.1378C101.561 25.61 100.529 24.8617 99.6879 23.9393C98.4535 22.5808 97.6623 20.911 97.4107 19.1334C97.2952 18.323 97.2345 17.499 97.1482 16.6807ZM112.772 16.657C112.692 15.7678 112.56 14.8835 112.376 14.0084C111.899 12.2198 110.865 10.8323 108.838 10.3839C107.761 10.0951 106.611 10.1871 105.601 10.6429C104.59 11.0987 103.789 11.8871 103.346 12.8614C102.41 14.8521 102.438 16.9275 102.844 19.017C103.021 20.0587 103.525 21.0256 104.29 21.7916C104.824 22.312 105.487 22.6965 106.219 22.9096C106.951 23.1227 107.727 23.1575 108.477 23.0109C109.261 22.9036 110.001 22.5988 110.619 22.1282C111.238 21.6576 111.712 21.0384 111.992 20.3351C112.508 19.17 112.773 17.9189 112.772 16.6553V16.657Z" fill="white"></path> <path d="M72.6141 23.2085C72.3546 24.2748 72.1075 25.2664 71.8729 26.2581C71.8669 26.3291 71.846 26.3983 71.8117 26.4617C71.7773 26.525 71.7301 26.5813 71.6727 26.6273C71.6154 26.6733 71.549 26.708 71.4774 26.7296C71.4058 26.7511 71.3304 26.759 71.2556 26.7528C69.9214 26.8127 68.5843 27.0352 67.2579 26.9787C65.307 26.8968 63.4817 26.3445 62.3208 24.7164C61.878 24.0613 61.5583 23.3382 61.376 22.5794C61.1172 21.5582 61.1495 20.4901 61.4695 19.4846C61.6848 18.8082 62.0448 18.181 62.5269 17.6424C63.009 17.1037 63.603 16.665 64.2717 16.3537C66.0202 15.559 67.8625 14.9654 69.7595 14.5855C70.9514 14.3385 72.1022 13.9379 73.1797 13.3951C74.6085 12.5988 74.2263 10.5301 72.9511 9.94507C71.8556 9.4997 70.6476 9.36513 69.4732 9.55766C68.2087 9.73085 66.9585 9.98711 65.7315 10.3246C65.092 10.5138 64.4638 10.7357 63.8496 10.9893C63.6841 11.0491 63.5157 11.1022 63.3257 11.1672C63.4371 10.1094 63.5585 9.09175 63.6443 8.07126C63.6812 7.63133 63.8365 7.37494 64.3384 7.2908C65.8863 7.03102 67.4115 6.65716 68.9659 6.47418C71.0994 6.15266 73.2783 6.22476 75.383 6.68653C76.4827 6.92481 77.4819 7.47005 78.2519 8.25198C78.9625 8.96677 79.3705 9.9049 79.3979 10.8871C79.4575 15.9624 79.4741 21.0377 79.5057 26.113C79.5057 26.2423 79.5057 26.3716 79.5057 26.5337H74.3769V16.4441C72.9058 17.3855 71.2365 17.6379 69.7155 18.2433C68.9094 18.548 68.1385 18.9307 67.4151 19.3852C67.1184 19.5773 66.8671 19.8259 66.6774 20.1152C66.4876 20.4045 66.3636 20.7282 66.3132 21.0656C66.2627 21.4029 66.2871 21.7466 66.3845 22.0745C66.482 22.4025 66.6505 22.7075 66.8793 22.9702C67.1745 23.2461 67.5248 23.4631 67.9098 23.6086C68.2947 23.7541 68.7064 23.8251 69.1207 23.8173C70.3189 23.8703 71.514 23.662 72.6141 23.2085Z" fill="white"></path> <path d="M72.6141 23.2085C72.3546 24.2748 72.1075 25.2664 71.8729 26.2581C71.8669 26.3291 71.846 26.3983 71.8117 26.4617C71.7773 26.525 71.7301 26.5813 71.6727 26.6273C71.6154 26.6733 71.549 26.708 71.4774 26.7296C71.4058 26.7511 71.3304 26.759 71.2556 26.7528C69.9214 26.8127 68.5843 27.0352 67.2579 26.9787C65.307 26.8968 63.4817 26.3445 62.3208 24.7164C61.878 24.0613 61.5583 23.3382 61.376 22.5794C61.1172 21.5582 61.1495 20.4901 61.4695 19.4846C61.6848 18.8082 62.0448 18.181 62.5269 17.6424C63.009 17.1037 63.603 16.665 64.2717 16.3537C66.0202 15.559 67.8625 14.9654 69.7595 14.5855C70.9514 14.3385 72.1022 13.9379 73.1797 13.3951C74.6085 12.5988 74.2263 10.5301 72.9511 9.94508C71.8556 9.4997 70.6476 9.36514 69.4732 9.55767C68.2087 9.73086 66.9585 9.98712 65.7315 10.3246C65.092 10.5138 64.4638 10.7357 63.8496 10.9893C63.6841 11.0491 63.5157 11.1022 63.3257 11.1672C63.4371 10.1094 63.5585 9.09175 63.6443 8.07127C63.6812 7.63134 63.8365 7.37495 64.3384 7.2908C65.8863 7.03102 67.4115 6.65717 68.9659 6.47419C71.0994 6.15267 73.2783 6.22477 75.383 6.68653C76.4827 6.92482 77.4819 7.47006 78.2519 8.25199C78.9625 8.96678 79.3705 9.90491 79.3979 10.8871C79.4575 15.9624 79.4741 21.0377 79.5057 26.113C79.5057 26.2423 79.5057 26.3716 79.5057 26.5337H74.3769V16.4441C72.9058 17.3855 71.2365 17.638 69.7155 18.2434C68.9094 18.548 68.1385 18.9307 67.4151 19.3853C67.1184 19.5773 66.8671 19.8259 66.6774 20.1152C66.4876 20.4045 66.3636 20.7282 66.3132 21.0656C66.2627 21.4029 66.2871 21.7466 66.3845 22.0745C66.482 22.4025 66.6505 22.7075 66.8793 22.9702C67.1745 23.2461 67.5248 23.4632 67.9098 23.6086C68.2947 23.7541 68.7064 23.8251 69.1207 23.8173C70.3189 23.8703 71.514 23.662 72.6141 23.2085Z" fill="#EDAB2D"></path> <path d="M72.6141 23.2085C72.3546 24.2748 72.1075 25.2664 71.8729 26.2581C71.8669 26.3291 71.846 26.3983 71.8117 26.4617C71.7773 26.525 71.7301 26.5813 71.6727 26.6273C71.6154 26.6733 71.549 26.708 71.4774 26.7296C71.4058 26.7511 71.3304 26.759 71.2556 26.7528C69.9214 26.8127 68.5843 27.0352 67.2579 26.9787C65.307 26.8968 63.4817 26.3445 62.3208 24.7164C61.878 24.0613 61.5583 23.3382 61.376 22.5794C61.1172 21.5582 61.1495 20.4901 61.4695 19.4846C61.6848 18.8082 62.0448 18.181 62.5269 17.6424C63.009 17.1037 63.603 16.665 64.2717 16.3537C66.0202 15.559 67.8625 14.9654 69.7595 14.5855C70.9514 14.3385 72.1022 13.9379 73.1797 13.3951C74.6085 12.5988 74.2263 10.5301 72.9511 9.94508C71.8556 9.4997 70.6476 9.36514 69.4732 9.55767C68.2087 9.73086 66.9585 9.98712 65.7315 10.3246C65.092 10.5138 64.4638 10.7357 63.8496 10.9893C63.6841 11.0491 63.5157 11.1022 63.3257 11.1672C63.4371 10.1094 63.5585 9.09175 63.6443 8.07127C63.6812 7.63134 63.8365 7.37495 64.3384 7.2908C65.8863 7.03102 67.4115 6.65717 68.9659 6.47419C71.0994 6.15267 73.2783 6.22477 75.383 6.68653C76.4827 6.92482 77.4819 7.47006 78.2519 8.25199C78.9625 8.96678 79.3705 9.90491 79.3979 10.8871C79.4575 15.9624 79.4741 21.0377 79.5057 26.113C79.5057 26.2423 79.5057 26.3716 79.5057 26.5337H74.3769V16.4441C72.9058 17.3855 71.2365 17.638 69.7155 18.2434C68.9094 18.548 68.1385 18.9307 67.4151 19.3853C67.1184 19.5773 66.8671 19.8259 66.6774 20.1152C66.4876 20.4045 66.3636 20.7282 66.3132 21.0656C66.2627 21.4029 66.2871 21.7466 66.3845 22.0745C66.482 22.4025 66.6505 22.7075 66.8793 22.9702C67.1745 23.2461 67.5248 23.4632 67.9098 23.6086C68.2947 23.7541 68.7064 23.8251 69.1207 23.8173C70.3189 23.8703 71.514 23.662 72.6141 23.2085Z" fill="#ED802D" fill-opacity="0.5"></path> <path d="M40.0383 22.0271C39.9502 22.7895 39.8663 23.4881 39.7895 24.1872C39.7216 24.8045 39.6823 25.4262 39.5829 26.0384C39.5521 26.1201 39.5012 26.1937 39.4346 26.2531C39.3679 26.3125 39.2873 26.356 39.1995 26.3801C38.2838 26.5888 37.3556 26.744 36.4199 26.8449C34.902 26.9856 33.3767 27.0421 31.8519 27.0143C29.6743 26.9704 27.579 26.2173 25.9176 24.8813C24.0307 23.347 22.8372 21.1838 22.5837 18.8386C22.4279 17.804 22.3682 16.7584 22.4051 15.7139C22.451 14.0281 22.8797 12.3715 23.6619 10.8571C24.242 9.70556 25.1095 8.70563 26.1892 7.94404C27.2688 7.18244 28.528 6.68217 29.8575 6.4866C31.8629 6.09925 33.9402 6.21488 35.8841 6.82205C37.0418 7.17309 38.0935 7.78328 38.9504 8.60108C39.8072 9.41888 40.4439 10.4203 40.8069 11.5207C41.1597 12.4721 41.3519 13.4705 41.3766 14.4788C41.3903 15.3056 41.4594 16.1318 41.507 17.0088H27.784C27.7524 18.6917 28.0102 20.2211 29.2193 21.5109C30.183 22.5252 31.5191 23.1516 32.9538 23.2616C35.0726 23.4965 37.0545 22.942 39.0298 22.3456C39.359 22.2485 39.6847 22.1395 40.0383 22.0271ZM36.296 14.2789C36.2766 13.7845 36.2289 13.2915 36.1532 12.8021C35.7364 10.852 34.5178 9.78919 32.343 9.73384C31.7112 9.70207 31.0804 9.81357 30.5031 10.0591C29.9257 10.3046 29.4183 10.6771 29.0229 11.1457C28.2866 12.0489 27.854 13.1414 27.7816 14.2811L36.296 14.2789Z" fill="white"></path> <path d="M40.7764 6.7413C42.613 6.7413 44.3799 6.73566 46.1463 6.75486C46.2653 6.75486 46.4392 6.93218 46.4826 7.05925C47.3 9.47012 48.1013 11.8855 48.9062 14.3003C49.6879 16.6457 50.469 18.9911 51.2739 21.4076C51.6114 20.4148 51.9347 19.4914 52.2395 18.5635C52.7193 17.1026 53.1843 15.6365 53.6606 14.1744C54.4325 11.8104 55.2064 9.44659 55.9823 7.08297C56.0419 6.89435 56.074 6.73565 56.3509 6.73735C58.0726 6.74582 59.7931 6.74187 61.5767 6.74187C61.3481 7.37551 61.1385 7.97751 60.9147 8.57388C60.3285 10.1382 59.7381 11.7007 59.1436 13.2612C57.895 16.5314 56.6436 19.8003 55.3894 23.0679C54.9727 24.1579 54.5559 25.2489 54.119 26.331C54.0816 26.3982 54.0281 26.4562 53.9627 26.5002C53.8974 26.5441 53.822 26.5728 53.7427 26.584C51.9442 26.6004 50.1457 26.5953 48.3204 26.5953C45.8135 20.0036 43.3101 13.4131 40.7764 6.7413Z" fill="white"></path> <path d="M95.1812 10.987C94.1238 10.7182 93.1142 10.4087 92.0807 10.2116C90.918 9.99024 89.7321 9.80049 88.595 10.3664C88.4156 10.4542 88.2571 10.576 88.1295 10.7243C88.0018 10.8726 87.9076 11.0443 87.8528 11.2286C87.798 11.4129 87.7837 11.6059 87.8108 11.7956C87.8379 11.9854 87.9058 12.1678 88.0104 12.3316C88.6657 13.2622 89.4875 14.0767 90.4387 14.7386C92.1176 16.1137 93.8518 17.4493 94.84 19.396C95.2243 20.0786 95.4454 20.8331 95.4878 21.6059C95.5302 22.3786 95.3928 23.1508 95.0853 23.8676C94.5393 24.9986 93.5433 25.8784 92.3152 26.3146C90.5139 27.0028 88.5569 27.2425 86.6304 27.0109C85.0772 26.8872 83.5424 26.5529 81.9868 26.3101L81.3623 21.8486C82.1595 22.1412 82.8631 22.4473 83.5978 22.6556C84.464 22.9019 85.3606 23.051 86.2381 23.2633C87.0654 23.4274 87.9275 23.2986 88.6617 22.9013C88.879 22.8204 89.0751 22.6955 89.2364 22.5354C89.3977 22.3753 89.5203 22.1837 89.5956 21.9741C89.671 21.7645 89.6973 21.5418 89.6728 21.3216C89.6482 21.1014 89.5734 20.8888 89.4535 20.6988C88.9501 19.8474 88.2671 19.1036 87.4472 18.5138C85.7934 17.1364 83.9722 15.911 82.8149 14.0806C82.1524 13.0583 81.8755 11.8528 82.0297 10.6617C82.3184 8.20002 84.3848 6.81302 86.5447 6.50128C87.9014 6.3172 89.2737 6.25857 90.6423 6.32621C91.9013 6.43135 93.1533 6.60102 94.3929 6.83448C94.7668 6.89095 94.7799 7.18066 94.8043 7.45569C94.8964 8.52192 94.9912 9.58796 95.0889 10.6538C95.1091 10.7673 95.14 10.8788 95.1812 10.987Z" fill="white"></path> <path d="M126.226 26.5783H120.891V0H126.226V26.5783Z" fill="white"></path> </svg>